<?xml version="1.0" encoding="utf-8"?>
<!-- Generator: Adobe Illustrator 16.0.0, SVG Export Plug-In . SVG Version: 6.00 Build 0)  -->
<!DOCTYPE svg PUBLIC "-//W3C//DTD SVG 1.1//EN" "http://www.w3.org/Graphics/SVG/1.1/DTD/svg11.dtd">
<svg version="1.1" id="Layer_1" xmlns="http://www.w3.org/2000/svg" xmlns:xlink="http://www.w3.org/1999/xlink" x="0px" y="0px"
	 width="420px" height="50px" viewBox="0 0 420 50" enable-background="new 0 0 420 50" xml:space="preserve">
<g>
	<g>
		<path d="M8.256,7.58c0.605-0.124,1.473-0.192,2.299-0.192c1.28,0,2.105,0.233,2.683,0.756c0.468,0.412,0.729,1.045,0.729,1.759
			c0,1.224-0.771,2.035-1.748,2.364v0.042c0.715,0.248,1.142,0.907,1.362,1.871c0.303,1.292,0.523,2.185,0.716,2.542H13.06
			c-0.151-0.261-0.357-1.059-0.619-2.213c-0.276-1.279-0.771-1.76-1.858-1.801H9.454v4.014H8.256V7.58z M9.454,11.799h1.225
			c1.28,0,2.092-0.7,2.092-1.759c0-1.196-0.868-1.719-2.134-1.732c-0.578,0-0.991,0.055-1.184,0.109V11.799z"/>
		<path d="M20.466,12.377h-3.606v3.341h4.019v1.003h-5.215V7.456h5.009v1.003h-3.813v2.928h3.606V12.377z"/>
		<path d="M22.436,16.721V7.456h1.308l2.973,4.688c0.688,1.086,1.225,2.062,1.665,3.011l0.027-0.014
			c-0.109-1.237-0.137-2.363-0.137-3.807V7.456h1.128v9.265h-1.211l-2.945-4.701c-0.647-1.032-1.266-2.09-1.734-3.093L23.468,8.94
			c0.068,1.168,0.097,2.282,0.097,3.822v3.958H22.436z"/>
		<path d="M39.421,11.992c0,3.188-1.94,4.879-4.308,4.879c-2.449,0-4.17-1.896-4.17-4.7c0-2.942,1.831-4.867,4.308-4.867
			C37.783,7.305,39.421,9.243,39.421,11.992z M32.224,12.143c0,1.979,1.073,3.753,2.958,3.753c1.899,0,2.973-1.746,2.973-3.849
			c0-1.842-0.963-3.767-2.959-3.767C33.214,8.28,32.224,10.109,32.224,12.143z"/>
	</g>
	<g>
		<path d="M53.089,7.61c2.528-0.516,6.149-0.803,9.597-0.803c5.345,0,8.792,0.976,11.206,3.157c1.954,1.722,3.045,4.363,3.045,7.347
			c0,5.108-3.218,8.495-7.298,9.872v0.171c2.988,1.035,4.77,3.789,5.689,7.809c1.264,5.394,2.184,9.124,2.988,10.617h-5.172
			c-0.632-1.09-1.494-4.42-2.586-9.241c-1.15-5.339-3.218-7.348-7.758-7.519h-4.712v16.76h-5V7.61z M58.089,25.231h5.115
			c5.343,0,8.733-2.928,8.733-7.346c0-4.994-3.619-7.176-8.907-7.232c-2.413,0-4.138,0.23-4.942,0.459V25.231z"/>
		<path d="M104.06,27.643H89.003v13.946h16.78v4.19H84.004V7.095h20.917v4.189H89.003V23.51h15.057V27.643z"/>
		<path d="M112.275,45.779V7.095h5.459l12.413,19.571c2.874,4.533,5.115,8.609,6.953,12.571l0.115-0.059
			c-0.459-5.165-0.574-9.873-0.574-15.898V7.095h4.712v38.685h-5.057L123.998,26.15c-2.701-4.306-5.287-8.725-7.24-12.915
			l-0.173,0.058c0.287,4.878,0.402,9.528,0.402,15.956v16.53H112.275z"/>
		<path d="M183.185,26.035c0,13.315-8.102,20.376-17.987,20.376c-10.229,0-17.412-7.921-17.412-19.629
			c0-12.284,7.643-20.319,17.987-20.319C176.347,6.463,183.185,14.556,183.185,26.035z M153.131,26.666
			c0,8.266,4.482,15.668,12.355,15.668c7.93,0,12.412-7.287,12.412-16.068c0-7.693-4.022-15.728-12.355-15.728
			C157.268,10.538,153.131,18.171,153.131,26.666z"/>
	</g>
	<g>
		<path d="M7.867,25.096c0.399,0.246,0.983,0.452,1.598,0.452c0.913,0,1.445-0.482,1.445-1.178c0-0.645-0.368-1.013-1.301-1.371
			c-1.127-0.4-1.824-0.982-1.824-1.955c0-1.075,0.892-1.873,2.233-1.873c0.708,0,1.22,0.164,1.527,0.338l-0.246,0.727
			c-0.226-0.123-0.687-0.328-1.312-0.328c-0.943,0-1.301,0.563-1.301,1.034c0,0.646,0.42,0.963,1.374,1.331
			c1.168,0.451,1.762,1.014,1.762,2.027c0,1.064-0.789,1.984-2.418,1.984c-0.667,0-1.394-0.193-1.763-0.439L7.867,25.096z"/>
		<path d="M18.943,22.66c0,2.375-1.445,3.634-3.208,3.634c-1.824,0-3.105-1.413-3.105-3.501c0-2.19,1.362-3.623,3.208-3.623
			C17.723,19.17,18.943,20.612,18.943,22.66z M13.583,22.773c0,1.473,0.799,2.794,2.203,2.794c1.414,0,2.213-1.3,2.213-2.867
			c0-1.371-0.717-2.804-2.203-2.804C14.321,19.897,13.583,21.258,13.583,22.773z"/>
		<path d="M24.926,25.956c-0.329,0.163-0.984,0.326-1.824,0.326c-1.947,0-3.413-1.227-3.413-3.489c0-2.16,1.465-3.623,3.607-3.623
			c0.86,0,1.404,0.184,1.64,0.307l-0.215,0.727c-0.338-0.164-0.82-0.287-1.394-0.287c-1.619,0-2.695,1.034-2.695,2.846
			c0,1.688,0.973,2.773,2.653,2.773c0.544,0,1.097-0.112,1.456-0.286L24.926,25.956z"/>
		<path d="M26.933,19.283v6.898h-0.892v-6.898H26.933z"/>
		<path d="M29.607,24.011l-0.718,2.169h-0.922l2.347-6.898h1.076l2.356,6.898h-0.953l-0.738-2.169H29.607z M31.872,23.315
			l-0.677-1.985c-0.153-0.451-0.256-0.86-0.358-1.26h-0.02c-0.104,0.41-0.215,0.829-0.349,1.249l-0.677,1.996H31.872z"/>
		<path d="M34.76,19.283h0.891v6.151h2.951v0.747H34.76V19.283z"/>
	</g>
	<g>
		<path d="M14.492,32.807c-0.057-1.063-0.125-2.339-0.113-3.287h-0.034c-0.261,0.892-0.577,1.84-0.961,2.89l-1.345,3.694h-0.747
			l-1.232-3.626c-0.362-1.071-0.667-2.055-0.882-2.958H9.156c-0.023,0.948-0.079,2.224-0.147,3.367l-0.204,3.262H7.867l0.531-7.611
			h1.255l1.3,3.683c0.316,0.935,0.577,1.771,0.769,2.562h0.034c0.192-0.768,0.464-1.604,0.803-2.562l1.357-3.683h1.255l0.475,7.611
			h-0.96L14.492,32.807z"/>
		<path d="M21.107,32.58h-2.963v2.745h3.302v0.823h-4.285v-7.611h4.115v0.824h-3.131v2.406h2.963V32.58z"/>
		<path d="M22.724,28.638c0.599-0.089,1.312-0.157,2.092-0.157c1.413,0,2.419,0.327,3.086,0.949
			c0.679,0.621,1.074,1.501,1.074,2.731c0,1.242-0.384,2.259-1.097,2.961c-0.713,0.71-1.889,1.093-3.37,1.093
			c-0.701,0-1.289-0.033-1.786-0.09V28.638z M23.708,35.368c0.249,0.045,0.611,0.057,0.995,0.057c2.104,0,3.245-1.175,3.245-3.23
			c0.011-1.795-1.006-2.934-3.086-2.934c-0.509,0-0.894,0.044-1.153,0.101V35.368z"/>
		<path d="M31.238,28.537v7.611h-0.984v-7.611H31.238z"/>
		<path d="M34.189,33.753l-0.791,2.396H32.38l2.589-7.611h1.188l2.6,7.611h-1.051l-0.814-2.396H34.189z M36.688,32.986l-0.747-2.19
			c-0.169-0.496-0.282-0.948-0.396-1.39h-0.022c-0.113,0.453-0.238,0.915-0.385,1.378l-0.746,2.202H36.688z"/>
	</g>
	<g>
		<g>
			<path d="M187.659,21.23c0.843,0.519,2.078,0.952,3.377,0.952c1.926,0,3.051-1.017,3.051-2.487c0-1.362-0.779-2.14-2.75-2.897
				c-2.38-0.843-3.853-2.075-3.853-4.129c0-2.27,1.884-3.956,4.719-3.956c1.494,0,2.576,0.346,3.225,0.713l-0.52,1.536
				c-0.475-0.261-1.45-0.693-2.77-0.693c-1.992,0-2.75,1.189-2.75,2.184c0,1.362,0.889,2.033,2.9,2.811
				c2.468,0.951,3.724,2.14,3.724,4.281c0,2.248-1.667,4.194-5.108,4.194c-1.407,0-2.944-0.411-3.723-0.93L187.659,21.23z"/>
			<path d="M211.056,16.085c0,5.015-3.052,7.674-6.774,7.674c-3.853,0-6.559-2.983-6.559-7.394c0-4.625,2.878-7.652,6.774-7.652
				C208.48,8.713,211.056,11.761,211.056,16.085z M199.736,16.323c0,3.114,1.689,5.902,4.653,5.902c2.987,0,4.676-2.746,4.676-6.053
				c0-2.897-1.515-5.923-4.654-5.923C201.294,10.249,199.736,13.124,199.736,16.323z"/>
			<path d="M223.695,23.047c-0.693,0.346-2.078,0.691-3.853,0.691c-4.114,0-7.209-2.594-7.209-7.373c0-4.562,3.095-7.652,7.62-7.652
				c1.816,0,2.966,0.389,3.462,0.648l-0.455,1.535c-0.714-0.346-1.731-0.605-2.943-0.605c-3.419,0-5.692,2.184-5.692,6.01
				c0,3.567,2.057,5.858,5.606,5.858c1.146,0,2.315-0.238,3.073-0.605L223.695,23.047z"/>
			<path d="M227.935,8.951v14.571h-1.882V8.951H227.935z"/>
			<path d="M233.584,18.939l-1.515,4.583h-1.95l4.958-14.571h2.272l4.979,14.571h-2.014l-1.558-4.583H233.584z M238.368,17.469
				l-1.43-4.194c-0.325-0.951-0.54-1.816-0.758-2.659h-0.044c-0.216,0.864-0.453,1.751-0.734,2.637l-1.429,4.216H238.368z"/>
			<path d="M244.469,8.951h1.884v12.994h6.233v1.577h-8.117V8.951z"/>
		</g>
		<g>
			<path d="M201.657,35.61c-0.12-2.242-0.263-4.938-0.238-6.941h-0.072c-0.55,1.884-1.218,3.888-2.03,6.107l-2.843,7.8h-1.576
				l-2.604-7.658c-0.764-2.267-1.409-4.34-1.862-6.249h-0.048c-0.047,2.004-0.167,4.699-0.311,7.109l-0.429,6.895h-1.983
				l1.123-16.081h2.651l2.748,7.778c0.668,1.981,1.218,3.745,1.624,5.417h0.072c0.406-1.625,0.979-3.391,1.696-5.417l2.866-7.778
				h2.651l1.004,16.081h-2.031L201.657,35.61z"/>
			<path d="M215.63,35.134h-6.258v5.797h6.973v1.742h-9.051V26.592h8.693v1.742h-6.615v5.081h6.258V35.134z"/>
			<path d="M219.044,26.808c1.266-0.192,2.772-0.335,4.42-0.335c2.986,0,5.11,0.693,6.52,2.005c1.435,1.312,2.27,3.172,2.27,5.772
				c0,2.625-0.812,4.772-2.316,6.251c-1.503,1.505-3.988,2.313-7.118,2.313c-1.48,0-2.723-0.07-3.774-0.19V26.808z M221.122,41.025
				c0.525,0.096,1.289,0.12,2.103,0.12c4.444,0,6.855-2.48,6.855-6.824c0.023-3.794-2.127-6.2-6.521-6.2
				c-1.074,0-1.887,0.093-2.437,0.213V41.025z"/>
			<path d="M237.03,26.592v16.081h-2.078V26.592H237.03z"/>
			<path d="M243.264,37.613l-1.672,5.06h-2.149l5.471-16.081h2.507l5.493,16.081h-2.221l-1.721-5.06H243.264z M248.544,35.993
				l-1.577-4.63c-0.359-1.049-0.598-2.002-0.836-2.935h-0.049c-0.239,0.955-0.501,1.933-0.812,2.912l-1.576,4.652H248.544z"/>
		</g>
	</g>
	<g>
		<path d="M13.246,45.415c-0.399,0.143-1.189,0.38-2.121,0.38c-1.046,0-1.906-0.269-2.583-0.912
			c-0.594-0.575-0.963-1.495-0.963-2.57c0.009-2.057,1.425-3.561,3.74-3.561c0.8,0,1.425,0.175,1.722,0.315l-0.214,0.729
			c-0.37-0.164-0.831-0.297-1.527-0.297c-1.68,0-2.777,1.043-2.777,2.773c0,1.75,1.056,2.784,2.664,2.784
			c0.584,0,0.984-0.082,1.189-0.184v-2.059h-1.404V42.1h2.275V45.415z"/>
		<path d="M14.608,38.914c0.451-0.09,1.096-0.142,1.711-0.142c0.953,0,1.567,0.173,1.998,0.563c0.349,0.307,0.543,0.776,0.543,1.309
			c0,0.911-0.574,1.517-1.301,1.762v0.029c0.532,0.186,0.85,0.677,1.015,1.394c0.226,0.961,0.389,1.627,0.533,1.893h-0.922
			c-0.112-0.195-0.266-0.789-0.461-1.647c-0.205-0.951-0.573-1.31-1.383-1.342H15.5v2.989h-0.892V38.914z M15.5,42.058h0.911
			c0.953,0,1.558-0.521,1.558-1.311c0-0.89-0.645-1.278-1.588-1.29c-0.43,0-0.739,0.042-0.881,0.084V42.058z"/>
		<path d="M26.052,42.201c0,2.375-1.444,3.634-3.207,3.634c-1.824,0-3.105-1.414-3.105-3.501c0-2.19,1.363-3.623,3.208-3.623
			C24.833,38.711,26.052,40.154,26.052,42.201z M20.694,42.313c0,1.476,0.798,2.794,2.203,2.794c1.414,0,2.214-1.299,2.214-2.865
			c0-1.37-0.717-2.804-2.204-2.804C21.431,39.438,20.694,40.799,20.694,42.313z"/>
		<path d="M28.101,38.824v4.083c0,1.546,0.687,2.199,1.609,2.199c1.024,0,1.68-0.675,1.68-2.199v-4.083h0.902v4.021
			c0,2.119-1.117,2.989-2.613,2.989c-1.414,0-2.481-0.809-2.481-2.949v-4.062H28.101z"/>
		<path d="M33.838,38.905c0.43-0.071,0.994-0.133,1.711-0.133c0.881,0,1.527,0.205,1.937,0.573c0.379,0.328,0.604,0.828,0.604,1.443
			c0,0.623-0.185,1.115-0.533,1.476c-0.471,0.5-1.24,0.755-2.111,0.755c-0.266,0-0.512-0.01-0.717-0.061v2.763h-0.891V38.905z
			 M34.729,42.23c0.195,0.052,0.44,0.072,0.738,0.072c1.076,0,1.731-0.521,1.731-1.474c0-0.91-0.645-1.351-1.629-1.351
			c-0.389,0-0.687,0.03-0.84,0.07V42.23z"/>
	</g>
	<g>
		<path d="M290.056,42.659c-1.993,0.714-5.928,1.887-10.576,1.887c-5.211,0-9.504-1.326-12.875-4.54
			c-2.962-2.857-4.802-7.451-4.802-12.809c0.052-10.255,7.102-17.757,18.647-17.757c3.985,0,7.102,0.867,8.583,1.582l-1.072,3.623
			c-1.84-0.816-4.139-1.479-7.612-1.479c-8.38,0-13.846,5.205-13.846,13.827c0,8.727,5.262,13.88,13.283,13.88
			c2.912,0,4.903-0.408,5.926-0.918V29.699h-6.999v-3.573h11.343V42.659z"/>
		<path d="M296.849,10.257c2.248-0.46,5.467-0.715,8.532-0.715c4.752,0,7.816,0.868,9.962,2.806
			c1.737,1.532,2.708,3.879,2.708,6.532c0,4.542-2.86,7.553-6.488,8.775v0.153c2.658,0.921,4.24,3.369,5.058,6.941
			c1.124,4.796,1.94,8.112,2.657,9.439h-4.599c-0.563-0.97-1.328-3.929-2.299-8.216c-1.022-4.744-2.86-6.531-6.897-6.685h-4.189
			v14.9h-4.444V10.257z M301.293,25.922h4.548c4.75,0,7.766-2.602,7.766-6.532c0-4.438-3.219-6.378-7.92-6.429
			c-2.146,0-3.679,0.204-4.394,0.408V25.922z"/>
		<path d="M353.914,26.638c0,11.838-7.204,18.113-15.99,18.113c-9.095,0-15.48-7.042-15.48-17.452
			c0-10.919,6.796-18.063,15.991-18.063C347.836,9.236,353.914,16.431,353.914,26.638z M327.195,27.197
			c0,7.348,3.983,13.932,10.983,13.932c7.052,0,11.036-6.482,11.036-14.288c0-6.838-3.577-13.982-10.985-13.982
			C330.874,12.858,327.195,19.646,327.195,27.197z"/>
		<path d="M364.131,9.797v20.359c0,7.706,3.423,10.973,8.021,10.973c5.109,0,8.379-3.367,8.379-10.973V9.797h4.496v20.054
			c0,10.562-5.568,14.9-13.028,14.9c-7.049,0-12.362-4.03-12.362-14.696V9.797H364.131z"/>
		<path d="M392.739,10.206c2.147-0.357,4.956-0.664,8.533-0.664c4.393,0,7.612,1.021,9.655,2.858
			c1.891,1.633,3.014,4.133,3.014,7.194c0,3.112-0.919,5.563-2.656,7.349c-2.35,2.5-6.182,3.775-10.524,3.775
			c-1.328,0-2.555-0.05-3.575-0.305v13.776h-4.446V10.206z M397.186,26.789c0.971,0.257,2.196,0.356,3.678,0.356
			c5.364,0,8.633-2.601,8.633-7.347c0-4.542-3.218-6.736-8.122-6.736c-1.941,0-3.423,0.154-4.188,0.357V26.789z"/>
	</g>
	<line fill="none" stroke="#000000" stroke-miterlimit="10" x1="6.549" y1="18.175" x2="39.161" y2="18.175"/>
	<line fill="none" stroke="#000000" stroke-width="3" stroke-miterlimit="10" x1="186.274" y1="5.081" x2="253.028" y2="5.081"/>
	<line fill="none" stroke="#000000" stroke-width="3" stroke-miterlimit="10" x1="186.274" y1="46.448" x2="253.028" y2="46.448"/>
	<line fill="none" stroke="#000000" stroke-miterlimit="10" x1="6.549" y1="37.488" x2="39.161" y2="37.488"/>
</g>
</svg>
